<svg width="20" height="20" viewBox="0 0 20 20" fill="none" xmlns="http://www.w3.org/2000/svg">
<g clip-path="url(#clip0_124_2)">
<mask id="mask0_124_2" style="mask-type:luminance" maskUnits="userSpaceOnUse" x="0" y="0" width="20" height="20">
<path d="M0 0H20V20H0V0Z" fill="white"/>
</mask>
<g mask="url(#mask0_124_2)">
<path d="M14.4625 13.1262H11.7875C11.4875 13.1262 11.25 12.8887 11.25 12.5887V9.91372C11.25 9.61997 11.4875 9.37622 11.7875 9.37622H14.4625C14.7562 9.37622 15 9.61372 15 9.91372V12.5887C15 12.8887 14.7625 13.1262 14.4625 13.1262Z" fill="white"/>
<path d="M11.4251 0.577018L11.4276 0.580143L19.3994 8.43327L19.4013 8.43514C19.591 8.62 19.7417 8.84099 19.8445 9.08505C19.9474 9.32912 20.0002 9.59132 20.0001 9.85616C19.9999 10.121 19.9467 10.3831 19.8435 10.6271C19.7403 10.871 19.5893 11.0918 19.3994 11.2764C19.0575 11.6146 18.605 11.8179 18.1251 11.8489V15.6933C18.6592 15.8211 19.1348 16.1252 19.4749 16.5564C19.8151 16.9876 20.0001 17.5209 20.0001 18.0701V19.3764H5.51123e-05V18.0701C-0.000804202 17.5206 0.183868 16.9869 0.524165 16.5554C0.864461 16.1239 1.34045 15.8199 1.87506 15.6926V11.8739C1.39539 11.8407 0.943301 11.6375 0.600055 11.3008C0.410178 11.1155 0.259259 10.8942 0.156178 10.6498C0.0530962 10.4054 -6.64455e-05 10.1429 -0.000182914 9.87759C-0.000299382 9.61234 0.0526327 9.34974 0.155499 9.10524C0.258366 8.86074 0.40909 8.63928 0.598805 8.45389L0.60068 8.45264L2.50006 6.58264V2.20139C2.50006 1.28702 3.25506 0.625143 4.08943 0.625143H5.91693C6.60568 0.625143 7.22443 1.07514 7.42943 1.73077L8.59506 0.581393C9.38256 -0.201107 10.6451 -0.186107 11.4238 0.576393M6.25006 4.64514V2.20139C6.24907 2.11398 6.21343 2.03053 6.15098 1.96936C6.08852 1.9082 6.00435 1.87431 5.91693 1.87514H4.08943C4.04562 1.87406 4.00202 1.88169 3.96118 1.89758C3.92033 1.91347 3.88305 1.93731 3.85148 1.96771C3.81992 1.99811 3.7947 2.03448 3.77729 2.0747C3.75988 2.11492 3.75062 2.15819 3.75006 2.20202V7.10577L6.25006 4.64514ZM3.12506 9.84139V16.8764H4.37506C4.37506 16.5326 4.65631 16.2514 5.00006 16.2514V10.2451C5.00006 9.77639 5.38131 9.39514 5.85006 9.39514H9.15631C9.62506 9.39514 10.0063 9.77639 10.0063 10.2451V16.2526C10.3357 16.2689 10.6001 16.5433 10.6001 16.8764H16.8751V9.81639L10.0126 3.05827L3.12506 9.84139ZM9.37506 12.8139C9.37506 12.731 9.34213 12.6515 9.28353 12.5929C9.22492 12.5343 9.14544 12.5014 9.06256 12.5014C8.97968 12.5014 8.90019 12.5343 8.84158 12.5929C8.78298 12.6515 8.75006 12.731 8.75006 12.8139C8.75006 12.8968 8.78298 12.9763 8.84158 13.0349C8.90019 13.0935 8.97968 13.1264 9.06256 13.1264C9.14544 13.1264 9.22492 13.0935 9.28353 13.0349C9.34213 12.9763 9.37506 12.8968 9.37506 12.8139Z" fill="white"/>
</g>
</g>
<defs>
<clipPath id="clip0_124_2">
<rect width="20" height="20" fill="white"/>
</clipPath>
</defs>
</svg>
